# xmcd
#
# Track frame offsets:
# 150
# 21587
# 36387
# 53456
# 73374
# 92683
# 111518
# 131133
# 154077
# 174103
# 193650
# 210806
# 231286
#
# Disc length: 3357 seconds
#
# Revision: 1
# Processed by: cddbd v1.5.1PL0 Copyright (c) Steve Scherf et al.
# Submitted via: Easy CD Ripper v2.31
#
DISCID=b50d1b0d
DTITLE=Peter Dickson - East West
DYEAR=2004
DGENRE=Alternative
TTITLE0=Tumba Rumba - Peter Dickson
TTITLE1=Sunday - Peter Dickson
TTITLE2=Mood Tango - Peter Dickson
TTITLE3=Kimbo - Peter Dickson
TTITLE4=For Dad - Peter Dickso
TTITLE5=Sita's Waltz - Peter Dickson
TTITLE6=Clement's Hymn - Peter Dickson
TTITLE7=Agre to Disagree - Peter Dickson
TTITLE8=Who's to Know - Peter Dickson
TTITLE9=Debra - Peter Dickson
TTITLE10=I Cross My Heart - Peter Dickson
TTITLE11=Twilight - Peter Dickson
TTITLE12=The Liar's Dance - Peter Dickson
EXTD=
EXTT0=
EXTT1=
EXTT2=
EXTT3=
EXTT4=
EXTT5=
EXTT6=
EXTT7=
EXTT8=
EXTT9=
EXTT10=
EXTT11=
EXTT12=
PLAYORDER=
